<svg width="58" height="62" viewBox="0 0 58 62" fill="none" xmlns="http://www.w3.org/2000/svg">
<path d="M49.4826 34.8182C44.011 29.3494 36.7367 26.339 28.9999 26.339C21.2632 26.339 13.9886 29.3494 8.51725 34.8182C3.04591 40.287 0.0336914 47.5575 0.0336914 55.2903C0.0336914 55.7298 0.38909 56.0876 0.831451 56.0876H6.30051C6.74028 56.0876 7.09827 55.7324 7.09827 55.2903C7.09827 43.2182 16.9243 33.3973 29.0026 33.3973C41.081 33.3973 50.907 43.2182 50.907 55.2903C50.907 55.7298 51.2624 56.0876 51.7047 56.0876H57.1738C57.6136 56.0876 57.9716 55.7324 57.9716 55.2903C57.9664 47.5575 54.9544 40.2867 49.4826 34.8182ZM45.0338 38.1378C41.0119 34.3812 35.6757 32.0148 29.7979 31.818V27.9439C36.7446 28.1432 43.0498 30.9414 47.775 35.4005L45.0338 38.1378ZM12.9663 38.1378L10.2254 35.4008C14.9504 30.9441 21.2558 28.1457 28.2024 27.9442V31.8183C22.3243 32.0151 16.9852 34.3786 12.9663 38.1378ZM5.51558 54.4929H1.63942C1.83886 47.5498 4.63855 41.2479 9.09993 36.5252L11.8408 39.2621C8.07976 43.2819 5.71246 48.6181 5.51558 54.4929ZM46.1615 39.265L48.9024 36.528C53.3615 41.2506 56.1614 47.5527 56.363 54.4958H52.4868C52.2874 48.6181 49.9201 43.2818 46.1615 39.265ZM42.4388 42.9858C42.7507 42.674 42.7507 42.1706 42.4388 41.8588C42.1269 41.547 41.6232 41.547 41.3112 41.8588L32.7334 50.4321C31.6979 49.6374 30.4041 49.1595 29.0005 49.1595C25.6203 49.1595 22.8692 51.9092 22.8692 55.2876C22.8692 58.6685 25.6203 61.4182 29.0005 61.4182C32.3806 61.4182 35.1317 58.6685 35.1317 55.2901C35.1317 53.8872 34.6562 52.5941 33.8584 51.5591L42.4388 42.9858ZM29.0003 59.8263C26.4972 59.8263 24.462 57.7921 24.462 55.2903C24.462 52.7885 26.4972 50.7543 29.0003 50.7543C31.5035 50.7543 33.5387 52.7885 33.5387 55.2903C33.5387 57.7921 31.5035 59.8263 29.0003 59.8263ZM19.8367 55.2903C19.8367 55.7299 19.4813 56.0877 19.0389 56.0877H10.9239C10.4841 56.0877 10.1261 55.7325 10.1261 55.2903C10.1261 54.8508 10.4815 54.493 10.9239 54.493H19.0389C19.4787 54.493 19.8367 54.8507 19.8367 55.2903ZM47.8722 55.2903C47.8722 55.7299 47.5168 56.0877 47.0744 56.0877H38.9613C38.5216 56.0877 38.1636 55.7325 38.1636 55.2903C38.1636 54.8508 38.519 54.493 38.9613 54.493H47.0764C47.5162 54.493 47.8715 54.8507 47.8715 55.2903H47.8722ZM23.3935 3.43406C23.3935 2.99451 23.7489 2.63671 24.1913 2.63671H38.374L36.5433 1.57108C36.1623 1.34875 36.0345 0.860674 36.2569 0.482413C36.4793 0.101645 36.9677 -0.0261277 37.3461 0.196198L41.7234 2.74655C41.7285 2.74911 41.7311 2.75166 41.7362 2.75422C41.7566 2.767 41.7771 2.77977 41.7975 2.79511C41.8052 2.80022 41.8103 2.80533 41.818 2.81044C41.8436 2.82833 41.8666 2.84877 41.887 2.87177C41.8896 2.87433 41.8921 2.87688 41.8947 2.87944C41.9126 2.89988 41.9305 2.92033 41.9484 2.94077C41.9535 2.94844 41.9586 2.9561 41.9637 2.96121C41.9791 2.98166 41.9919 3.0021 42.0046 3.02255C42.0072 3.02766 42.0123 3.03532 42.0149 3.04043C42.0302 3.06855 42.0455 3.09666 42.0583 3.12732C42.0583 3.12732 42.0583 3.12987 42.0609 3.12987C42.0737 3.15798 42.0813 3.1861 42.089 3.21676C42.0916 3.22443 42.0941 3.23209 42.0941 3.23976C42.0992 3.26276 42.1044 3.28831 42.1095 3.31132C42.112 3.31898 42.112 3.3292 42.1146 3.33687C42.1197 3.36754 42.1197 3.40076 42.1197 3.43398C42.1197 3.4672 42.1171 3.49787 42.1146 3.53109C42.112 3.53876 42.112 3.54898 42.1095 3.55665C42.1044 3.5822 42.1018 3.6052 42.0941 3.6282L42.0865 3.6512C42.0788 3.67931 42.0686 3.70997 42.0583 3.73808C42.0583 3.73808 42.0583 3.74064 42.0558 3.74064C42.043 3.76875 42.0302 3.79941 42.0123 3.82752C42.0098 3.83263 42.0046 3.8403 42.0021 3.84541C41.9893 3.86586 41.9765 3.8863 41.9612 3.90674C41.9561 3.91441 41.9509 3.92208 41.9458 3.92719C41.9279 3.95019 41.91 3.97063 41.8921 3.98852L41.8845 3.99618C41.8615 4.01918 41.8384 4.03963 41.8154 4.05752C41.8078 4.06263 41.8027 4.06774 41.795 4.07285C41.7745 4.08818 41.7541 4.10096 41.7336 4.11374C41.7285 4.11629 41.7259 4.11885 41.7208 4.1214L37.3436 6.67176C37.2183 6.74587 37.0802 6.77909 36.9421 6.77909C36.6686 6.77909 36.4027 6.63854 36.2518 6.38299C36.0294 6.00222 36.1572 5.51669 36.5382 5.29432L38.3689 4.22614L24.1888 4.22869C23.749 4.23125 23.3935 3.87357 23.3935 3.43406ZM16.9017 3.43406C16.9017 2.99451 17.2571 2.63671 17.6995 2.63671H20.9594C21.3992 2.63671 21.7572 2.99193 21.7572 3.43406C21.7572 3.8736 21.4018 4.2314 20.9594 4.2314H17.6995C17.2597 4.2314 16.9017 3.87363 16.9017 3.43406ZM10.4125 3.43406C10.4125 2.99451 10.7679 2.63671 11.2103 2.63671H14.4702C14.91 2.63671 15.268 2.99193 15.268 3.43406C15.268 3.8736 14.9126 4.2314 14.4702 4.2314H11.2103C10.7679 4.2314 10.4125 3.87363 10.4125 3.43406ZM3.92071 3.43406C3.92071 2.99451 4.27611 2.63671 4.71847 2.63671H7.97843C8.41821 2.63671 8.77619 2.99193 8.77619 3.43406C8.77619 3.8736 8.42079 4.2314 7.97843 4.2314H4.71847C4.27869 4.2314 3.92071 3.87363 3.92071 3.43406ZM48.2177 7.0961C48.4402 6.71534 48.9259 6.58756 49.3069 6.80989L53.6817 9.36024C53.6868 9.3628 53.6893 9.36536 53.6945 9.36791C53.7149 9.38069 53.7354 9.39347 53.7558 9.4088C53.7635 9.41391 53.7686 9.41902 53.7763 9.42413C53.8018 9.44202 53.8249 9.46246 53.8453 9.48546C53.8479 9.48802 53.8504 9.49057 53.853 9.49313C53.8709 9.51357 53.8888 9.53402 53.9067 9.55446C53.9118 9.56213 53.9169 9.56979 53.922 9.57491C53.9374 9.59535 53.9501 9.61579 53.9629 9.63624C53.9655 9.64135 53.9706 9.64902 53.9731 9.65413C53.9885 9.68224 54.0038 9.71035 54.0166 9.74101C54.0166 9.74101 54.0166 9.74357 54.0192 9.74357C54.032 9.77168 54.0396 9.79979 54.0473 9.83045C54.0499 9.83812 54.0524 9.84579 54.0524 9.85345C54.0575 9.87645 54.0626 9.90201 54.0678 9.925C54.0703 9.93267 54.0703 9.94289 54.0729 9.95056C54.078 9.98122 54.078 10.0144 54.078 10.0477C54.078 10.0809 54.0754 10.1116 54.0729 10.1448C54.0703 10.1524 54.0703 10.1627 54.0678 10.1703C54.0626 10.1959 54.0601 10.2189 54.0524 10.2419C54.0499 10.2496 54.0473 10.2572 54.0473 10.2649C54.0396 10.293 54.0294 10.3237 54.0192 10.3518C54.0192 10.3518 54.0192 10.3543 54.0166 10.3543C54.0038 10.3824 53.991 10.4131 53.9731 10.4412C53.9706 10.4463 53.9655 10.454 53.9629 10.4591C53.9501 10.4795 53.9374 10.5 53.922 10.5204C53.9169 10.5281 53.9118 10.5358 53.9067 10.5409C53.8888 10.5639 53.8709 10.5843 53.853 10.6022L53.8453 10.6099C53.8223 10.6329 53.7993 10.6533 53.7763 10.6712C53.7686 10.6763 53.7635 10.6814 53.7558 10.6865C53.7354 10.7019 53.7149 10.7147 53.6945 10.7274C53.6893 10.73 53.6868 10.7325 53.6817 10.7351L49.3069 13.2855C49.1817 13.3596 49.0436 13.3928 48.9055 13.3928C48.632 13.3928 48.366 13.2522 48.2152 12.9967C47.9927 12.6159 48.1206 12.1304 48.5015 11.908L50.3322 10.8398L36.1522 10.8449C35.7124 10.8449 35.3544 10.4897 35.3544 10.0476C35.3544 9.60805 35.7098 9.25025 36.1522 9.25025L50.3349 9.2528L48.5042 8.18717C48.1258 7.96484 47.9953 7.47692 48.2177 7.0961ZM29.6601 10.845C29.2203 10.845 28.8623 10.4898 28.8623 10.0477C28.8623 9.60814 29.2177 9.25034 29.6601 9.25034H32.92C33.3598 9.25034 33.7178 9.60555 33.7178 10.0477C33.7178 10.4872 33.3624 10.845 32.92 10.845H29.6601ZM22.373 10.0503C22.373 9.61075 22.7284 9.25295 23.1708 9.25295H26.4307C26.8705 9.25295 27.2285 9.60817 27.2285 10.0503C27.2285 10.4898 26.8731 10.8476 26.4307 10.8476H23.1708C22.731 10.8451 22.373 10.4899 22.373 10.0503ZM15.8838 10.0503C15.8838 9.61075 16.2392 9.25295 16.6815 9.25295H19.9415C20.3813 9.25295 20.7393 9.60817 20.7393 10.0503C20.7393 10.4898 20.3839 10.8476 19.9415 10.8476L16.679 10.8451C16.2392 10.8451 15.8838 10.4898 15.8838 10.0503ZM38.3733 17.4611H24.188C23.7482 17.4611 23.3902 17.1059 23.3902 16.6638C23.3902 16.2242 23.7456 15.8665 24.188 15.8665H38.3707L36.54 14.7983C36.159 14.5759 36.0312 14.0879 36.2536 13.7096C36.4761 13.3288 36.9644 13.2011 37.3428 13.4234L41.7201 15.9737C41.7252 15.9763 41.7278 15.9789 41.7329 15.9814C41.7534 15.9942 41.7738 16.007 41.7943 16.0223C41.8019 16.0274 41.8071 16.0325 41.8147 16.0376C41.8403 16.0555 41.8633 16.076 41.8838 16.099C41.8863 16.1015 41.8889 16.1041 41.8914 16.1066C41.9093 16.1271 41.9272 16.1475 41.9451 16.168C41.9502 16.1756 41.9553 16.1833 41.9605 16.1884C41.9758 16.2088 41.9886 16.2293 42.0014 16.2497C42.0039 16.2548 42.009 16.2625 42.0116 16.2676C42.0269 16.2957 42.0423 16.3238 42.0551 16.3545C42.0551 16.3545 42.0551 16.3571 42.0576 16.3571C42.0704 16.3852 42.0781 16.4133 42.0857 16.4439C42.0883 16.4516 42.0909 16.4593 42.0909 16.4669C42.096 16.4899 42.1011 16.5155 42.1062 16.5385C42.1088 16.5462 42.1088 16.5564 42.1113 16.5641C42.1164 16.5947 42.1164 16.6279 42.1164 16.6612C42.1164 16.6944 42.1139 16.7251 42.1113 16.7583C42.1088 16.7659 42.1088 16.7762 42.1062 16.7838C42.1011 16.8094 42.0985 16.8324 42.0909 16.8554C42.0883 16.8631 42.0857 16.8707 42.0857 16.8784C42.0781 16.9065 42.0678 16.9372 42.0576 16.9653C42.0576 16.9653 42.0576 16.9678 42.0551 16.9678C42.0423 16.9959 42.0295 17.0266 42.0116 17.0547C42.009 17.0598 42.0039 17.0675 42.0014 17.0726C41.9886 17.093 41.9758 17.1135 41.9605 17.1339C41.9553 17.1416 41.9502 17.1493 41.9451 17.1544C41.9272 17.1774 41.9093 17.1978 41.8914 17.2157L41.8838 17.2234C41.8607 17.2464 41.8377 17.2668 41.8147 17.2847C41.8071 17.2898 41.8019 17.2949 41.7943 17.3C41.7738 17.3154 41.7534 17.3281 41.7329 17.3409C41.7278 17.3435 41.7252 17.346 41.7201 17.3486L37.3428 19.8989C37.2176 19.9731 37.0795 20.0063 36.9414 20.0063C36.6678 20.0063 36.4019 19.8657 36.2511 19.6102C36.0286 19.2294 36.1565 18.7439 36.5374 18.5215L38.3733 17.4611ZM21.7564 16.6638C21.7564 17.1033 21.401 17.4611 20.9586 17.4611H17.6986C17.2589 17.4611 16.9009 17.1059 16.9009 16.6638C16.9009 16.2242 17.2563 15.8665 17.6986 15.8665H20.9586C21.3984 15.869 21.7564 16.2242 21.7564 16.6638ZM10.4118 16.6638C10.4118 16.2242 10.7672 15.8665 11.2095 15.8665H14.4695C14.9093 15.8665 15.2673 16.2217 15.2673 16.6638C15.2673 17.1033 14.9119 17.4611 14.4695 17.4611H11.2095C10.7672 17.4611 10.4118 17.1034 10.4118 16.6638ZM3.91999 16.6638C3.91999 16.2242 4.27539 15.8665 4.71775 15.8665H7.97771C8.41749 15.8665 8.77547 16.2217 8.77547 16.6638C8.77547 17.1033 8.42007 17.4611 7.97771 17.4611H4.71775C4.27797 17.4611 3.91999 17.1034 3.91999 16.6638ZM48.503 25.143L50.3337 24.0773H36.1511C35.7113 24.0773 35.3533 23.7221 35.3533 23.28C35.3533 22.8404 35.7087 22.4826 36.1511 22.4826H50.3337L48.503 21.417C48.1221 21.1947 47.9942 20.7066 48.2167 20.3283C48.4391 19.9476 48.9249 19.8198 49.3059 20.0421L53.6806 22.5925C53.6857 22.595 53.6883 22.5976 53.6934 22.6001C53.7139 22.6129 53.7343 22.6257 53.7548 22.641C53.7624 22.6461 53.7676 22.6512 53.7752 22.6564C53.8008 22.6742 53.8238 22.6947 53.8443 22.7177C53.8468 22.7202 53.8494 22.7228 53.8519 22.7254C53.8698 22.7458 53.8877 22.7662 53.9056 22.7867C53.9107 22.7944 53.9159 22.802 53.921 22.8071C53.9363 22.8276 53.9491 22.848 53.9619 22.8685C53.9644 22.8736 53.9695 22.8812 53.9721 22.8863C53.9874 22.9145 54.0028 22.9426 54.0156 22.9732C54.0156 22.9732 54.0156 22.9758 54.0181 22.9758C54.0309 23.0039 54.0386 23.032 54.0463 23.0627C54.0488 23.0703 54.0514 23.078 54.0514 23.0857C54.0565 23.1087 54.0616 23.1342 54.0667 23.1572C54.0693 23.1649 54.0693 23.1751 54.0718 23.1828C54.0769 23.2135 54.0769 23.2467 54.0769 23.2799C54.0769 23.3131 54.0744 23.3438 54.0718 23.377C54.0693 23.3847 54.0693 23.3949 54.0667 23.4026C54.0616 23.4281 54.059 23.4511 54.0514 23.4741C54.0488 23.4818 54.0463 23.4895 54.0463 23.4971C54.0386 23.5252 54.0284 23.5559 54.0181 23.584C54.0181 23.584 54.0181 23.5866 54.0156 23.5866C54.0028 23.6147 53.99 23.6453 53.9721 23.6734C53.9695 23.6786 53.9644 23.6862 53.9619 23.6913C53.9491 23.7118 53.9363 23.7322 53.921 23.7527C53.9159 23.7603 53.9107 23.768 53.9056 23.7731C53.8877 23.7961 53.8698 23.8166 53.8519 23.8344C53.8494 23.837 53.8468 23.8396 53.8443 23.8421C53.8213 23.8651 53.7982 23.8855 53.7752 23.9034C53.7676 23.9085 53.7624 23.9137 53.7548 23.9188C53.7343 23.9341 53.7139 23.9469 53.6934 23.9597C53.6883 23.9622 53.6857 23.9648 53.6806 23.9673L49.3059 26.5177C49.1806 26.5918 49.0426 26.625 48.9045 26.625C48.6309 26.625 48.365 26.4845 48.2141 26.2289C47.9942 25.8532 48.1246 25.3653 48.503 25.143ZM32.919 22.4827C33.3587 22.4827 33.7167 22.8379 33.7167 23.28C33.7167 23.7196 33.3613 24.0774 32.919 24.0774H29.659C29.2192 24.0774 28.8612 23.7222 28.8612 23.28C28.8612 22.8405 29.2166 22.4827 29.659 22.4827H32.919ZM22.3723 23.28C22.3723 22.8405 22.7277 22.4827 23.17 22.4827H26.43C26.8698 22.4827 27.2278 22.8379 27.2278 23.28C27.2278 23.7196 26.8724 24.0774 26.43 24.0774H23.17C22.7303 24.0774 22.3723 23.7196 22.3723 23.28ZM15.8831 23.28C15.8831 22.8405 16.2384 22.4827 16.6808 22.4827H19.9408C20.3806 22.4827 20.7385 22.8379 20.7385 23.28C20.7385 23.7196 20.3831 24.0774 19.9408 24.0774H16.6783C16.2385 24.0774 15.8831 23.7196 15.8831 23.28Z" fill="#E8DDDB"/>
</svg>
